HIERARCHY
ROOT Hips
{
    OFFSET   0.000000   0.000000   0.000000
    CHANNELS 6 Xposition Yposition Zposition Zrotation Xrotation Yrotation
    JOINT Chest
    {
        OFFSET   0.000000   8.007230   0.000000
        CHANNELS 3 Zrotation Xrotation Yrotation
        JOINT Chest2
        {
            OFFSET   0.000000  22.077100   0.000000
            CHANNELS 3 Zrotation Xrotation Yrotation
            JOINT Neck
            {
                OFFSET   0.000000  23.254700   0.000000
                CHANNELS 3 Zrotation Xrotation Yrotation
                JOINT Head
                {
                    OFFSET   0.000010  14.370000   1.956610
                    CHANNELS 3 Zrotation Xrotation Yrotation
                    End Site
                    {
                        OFFSET   0.000000  19.566000   0.000000
                    }
                }
            }
            JOINT LeftCollar
            {
                OFFSET   3.911900  19.017000  -0.467063
                CHANNELS 3 Zrotation Xrotation Yrotation
                JOINT LeftShoulder
                {
                    OFFSET  10.383700   0.000000   0.000000
                    CHANNELS 3 Zrotation Xrotation Yrotation
                    JOINT LeftElbow
                    {
                        OFFSET  26.662100   0.001671   0.000522
                        CHANNELS 3 Zrotation Xrotation Yrotation
                        JOINT LeftWrist
                        {
                            OFFSET  28.869000   0.000037  -0.000114
                            CHANNELS 3 Zrotation Xrotation Yrotation
                            JOINT LeftFinger0
                            {
                                OFFSET   2.044650  -2.323450   3.252850
                                CHANNELS 3 Zrotation Xrotation Yrotation
                                JOINT LeftFinger01
                                {
                                    OFFSET   3.088140   0.000000   0.000000
                                    CHANNELS 3 Zrotation Xrotation Yrotation
                                    JOINT LeftFinger02
                                    {
                                        OFFSET   2.639460   0.000000   0.000000
                                        CHANNELS 3 Zrotation Xrotation Yrotation
                                        End Site
                                        {
                                            OFFSET   2.582190   0.000000   0.000000
                                        }
                                    }
                                }
                            }
                            JOINT LeftFinger1
                            {
                                OFFSET   8.364480   0.000000   3.252850
                                CHANNELS 3 Zrotation Xrotation Yrotation
                                JOINT LeftFinger11
                                {
                                    OFFSET   4.646930   0.000000   0.000000
                                    CHANNELS 3 Zrotation Xrotation Yrotation
                                    JOINT LeftFinger12
                                    {
                                        OFFSET   2.323470   0.000000   0.000000
                                        CHANNELS 3 Zrotation Xrotation Yrotation
                                        End Site
                                        {
                                            OFFSET   2.273050   0.000000   0.000000
                                        }
                                    }
                                }
                            }
                            JOINT LeftFinger2
                            {
                                OFFSET   8.364490   0.000016   1.078090
                                CHANNELS 3 Zrotation Xrotation Yrotation
                                JOINT LeftFinger21
                                {
                                    OFFSET   5.111620   0.000000   0.000000
                                    CHANNELS 3 Zrotation Xrotation Yrotation
                                    JOINT LeftFinger22
                                    {
                                        OFFSET   2.788150   0.000013   0.000000
                                        CHANNELS 3 Zrotation Xrotation Yrotation
                                        End Site
                                        {
                                            OFFSET   2.727660   0.000000   0.000000
                                        }
                                    }
                                }
                            }
                            JOINT LeftFinger3
                            {
                                OFFSET   7.899780   0.000016  -1.078090
                                CHANNELS 3 Zrotation Xrotation Yrotation
                                JOINT LeftFinger31
                                {
                                    OFFSET   4.646930   0.000000   0.000000
                                    CHANNELS 3 Zrotation Xrotation Yrotation
                                    JOINT LeftFinger32
                                    {
                                        OFFSET   2.323470   0.000000   0.000000
                                        CHANNELS 3 Zrotation Xrotation Yrotation
                                        End Site
                                        {
                                            OFFSET   2.273050   0.000000   0.000000
                                        }
                                    }
                                }
                            }
                            JOINT LeftFinger4
                            {
                                OFFSET   7.435080   0.000000  -3.252850
                                CHANNELS 3 Zrotation Xrotation Yrotation
                                JOINT LeftFinger41
                                {
                                    OFFSET   3.717550   0.000000   0.000000
                                    CHANNELS 3 Zrotation Xrotation Yrotation
                                    JOINT LeftFinger42
                                    {
                                        OFFSET   1.858760   0.000000   0.000000
                                        CHANNELS 3 Zrotation Xrotation Yrotation
                                        End Site
                                        {
                                            OFFSET   1.818440   0.000000   0.000000
                                        }
                                    }
                                }
                            }
                        }
                    }
                }
            }
            JOINT RightCollar
            {
                OFFSET  -3.911900  19.017000  -0.467064
                CHANNELS 3 Zrotation Xrotation Yrotation
                JOINT RightShoulder
                {
                    OFFSET -10.383700   0.000000   0.000000
                    CHANNELS 3 Zrotation Xrotation Yrotation
                    JOINT RightElbow
                    {
                        OFFSET -26.662100   0.001633   0.000260
                        CHANNELS 3 Zrotation Xrotation Yrotation
                        JOINT RightWrist
                        {
                            OFFSET -28.869000  -0.000045  -0.000080
                            CHANNELS 3 Zrotation Xrotation Yrotation
                            JOINT RightFinger0
                            {
                                OFFSET  -2.044660  -2.323490   3.252850
                                CHANNELS 3 Zrotation Xrotation Yrotation
                                JOINT RightFinger01
                                {
                                    OFFSET  -3.088140   0.000000   0.000000
                                    CHANNELS 3 Zrotation Xrotation Yrotation
                                    JOINT RightFinger02
                                    {
                                        OFFSET  -2.639450   0.000000   0.000000
                                        CHANNELS 3 Zrotation Xrotation Yrotation
                                        End Site
                                        {
                                            OFFSET  -2.582190   0.000000   0.000000
                                        }
                                    }
                                }
                            }
                            JOINT RightFinger1
                            {
                                OFFSET  -8.364480   0.000000   3.252850
                                CHANNELS 3 Zrotation Xrotation Yrotation
                                JOINT RightFinger11
                                {
                                    OFFSET  -4.646920   0.000000   0.000000
                                    CHANNELS 3 Zrotation Xrotation Yrotation
                                    JOINT RightFinger12
                                    {
                                        OFFSET  -2.323470   0.000000   0.000000
                                        CHANNELS 3 Zrotation Xrotation Yrotation
                                        End Site
                                        {
                                            OFFSET  -2.273050   0.000000   0.000000
                                        }
                                    }
                                }
                            }
                            JOINT RightFinger2
                            {
                                OFFSET  -8.364480   0.000000   1.078090
                                CHANNELS 3 Zrotation Xrotation Yrotation
                                JOINT RightFinger21
                                {
                                    OFFSET  -5.111610   0.000000   0.000000
                                    CHANNELS 3 Zrotation Xrotation Yrotation
                                    JOINT RightFinger22
                                    {
                                        OFFSET  -2.788160   0.000000   0.000000
                                        CHANNELS 3 Zrotation Xrotation Yrotation
                                        End Site
                                        {
                                            OFFSET  -2.727660   0.000000   0.000000
                                        }
                                    }
                                }
                            }
                            JOINT RightFinger3
                            {
                                OFFSET  -7.899780   0.000000  -1.078090
                                CHANNELS 3 Zrotation Xrotation Yrotation
                                JOINT RightFinger31
                                {
                                    OFFSET  -4.646930   0.000000   0.000000
                                    CHANNELS 3 Zrotation Xrotation Yrotation
                                    JOINT RightFinger32
                                    {
                                        OFFSET  -2.323470   0.000000   0.000000
                                        CHANNELS 3 Zrotation Xrotation Yrotation
                                        End Site
                                        {
                                            OFFSET  -2.273050   0.000000   0.000000
                                        }
                                    }
                                }
                            }
                            JOINT RightFinger4
                            {
                                OFFSET  -7.435090   0.000000  -3.252850
                                CHANNELS 3 Zrotation Xrotation Yrotation
                                JOINT RightFinger41
                                {
                                    OFFSET  -3.717550   0.000000   0.000000
                                    CHANNELS 3 Zrotation Xrotation Yrotation
                                    JOINT RightFinger42
                                    {
                                        OFFSET  -1.858760   0.000000   0.000000
                                        CHANNELS 3 Zrotation Xrotation Yrotation
                                        End Site
                                        {
                                            OFFSET  -1.818440   0.000000   0.000000
                                        }
                                    }
                                }
                            }
                        }
                    }
                }
            }
        }
    }
    JOINT LeftHip
    {
        OFFSET   9.782990   0.000000   0.000000
        CHANNELS 3 Zrotation Xrotation Yrotation
        JOINT LeftKnee
        {
            OFFSET  -0.000063 -41.789100   0.001657
            CHANNELS 3 Zrotation Xrotation Yrotation
            JOINT LeftAnkle
            {
                OFFSET   0.000078 -41.133200  -0.000113
                CHANNELS 3 Zrotation Xrotation Yrotation
                JOINT LeftToe
                {
                    OFFSET   0.000000  -6.358970  14.674500
                    CHANNELS 3 Zrotation Xrotation Yrotation
                    End Site
                    {
                        OFFSET   0.000000   0.000000   3.913200
                    }
                }
            }
        }
    }
    JOINT RightHip
    {
        OFFSET  -9.782990   0.000000   0.000000
        CHANNELS 3 Zrotation Xrotation Yrotation
        JOINT RightKnee
        {
            OFFSET   0.000053 -41.789200   0.000277
            CHANNELS 3 Zrotation Xrotation Yrotation
            JOINT RightAnkle
            {
                OFFSET   0.000030 -41.133200  -0.000150
                CHANNELS 3 Zrotation Xrotation Yrotation
                JOINT RightToe
                {
                    OFFSET   0.000000  -6.358960  14.674500
                    CHANNELS 3 Zrotation Xrotation Yrotation
                    End Site
                    {
                        OFFSET   0.000000   0.000000   3.913200
                    }
                }
            }
        }
    }
}
MOTION
Frames: 6
Frame Time:   0.016667
  0.191177  89.558100  -0.660499  -2.558020  -9.734720  -0.679398   0.098266   5.991560   0.868146   0.105529  11.984000   1.740300   1.036680  -1.049550   0.025780   1.705320  -2.126200   2.193630  -4.399190  -1.365370   0.108226 -73.148300  16.287600  -1.574310  -1.447570  -3.703640 -17.532000  12.237400  -4.066700   2.225990  38.277100  29.895300 -56.674400 -31.592300   0.000000   0.000000 -10.800400   0.001547   0.000000 -30.116800   4.615720  -7.889580 -24.901300   0.008203   0.001564 -17.430900   0.011869   0.000458 -28.290400  -2.337760   4.334220 -34.900100   0.000000   0.000000 -23.243400  -0.000410   0.000000 -28.485600  -2.352450   4.326280 -37.018200   0.001516  -0.000786 -24.654100  -0.004580  -0.000285 -29.790700  -2.451690   4.270890 -44.843900   0.000439  -0.001196 -29.856000   0.000726   0.000150  11.845200   0.721563   5.804760  69.359900   6.058970  -4.783260  -4.339260  -7.825270  18.141900 -12.392900  -2.681210   6.701320 -41.783100  39.325100  71.081100  33.193300  -0.003817   0.002569  11.590300   0.003069  -0.005207  33.985700   5.547160   8.159920  28.133900   0.003051   0.008311  19.693700   0.001014  -0.003083  28.478900  -3.429670  -6.292830  38.463000   0.003342  -0.005263  25.616300   0.000874  -0.001012  28.140800  -3.392060  -6.313140  34.434100   0.003243  -0.001389  22.938000  -0.000206  -0.002268  44.573700  -5.041230  -5.095890  67.201100  -0.003755   0.004343  44.755900  -0.007790  -0.006167   1.846980  12.290200   4.330450   0.903778   0.105392   3.760650  -0.222095  -3.274000   2.109660   0.000000   0.000000  -0.000000   3.183980  10.122900   0.384308  -0.346457   2.441530  -7.308870  -0.236328  -3.595000  -0.909083   0.000000   0.000000   0.000000
  0.204253  89.558100  -0.660477  -2.569430  -9.737560  -0.708845   0.101503   5.991540   0.871117   0.111730  11.984000   1.746000   1.036680  -1.040460   0.025747   1.704920  -2.107710   2.198860  -4.407030  -1.357900   0.108103 -73.163900  16.299900  -1.593260  -1.441530  -3.708100 -17.530800  12.248600  -4.064600   2.230720  38.273900  29.895000 -56.701200 -31.592300   0.000000   0.000024 -10.800300   0.001552  -0.000000 -30.118700   4.610610  -7.884030 -24.902500   0.008205   0.001565 -17.431800   0.011868   0.000461 -28.292200  -2.326360   4.312620 -34.916500   0.000000   0.000000 -23.254300  -0.000411  -0.000000 -28.487200  -2.340840   4.304800 -37.021000   0.001517  -0.000786 -24.656000  -0.004580  -0.000286 -29.792500  -2.439200   4.249910 -44.836400   0.000440  -0.001195 -29.856000   0.000726   0.000150  11.844900   0.721550   5.804820  69.349100   6.089660  -4.776150  -4.332980  -7.833980  18.142300 -12.379600  -2.688600   6.707710 -41.783100  39.333600  71.109600  33.194000  -0.003825   0.002593  11.590300   0.003073  -0.005206  33.983400   5.539970   8.149330  28.129600   0.003053   0.008317  19.690700   0.001018  -0.003082  28.480300  -3.423430  -6.281230  38.467500   0.003328  -0.005262  25.619400   0.000864  -0.001004  28.142100  -3.385900  -6.301490  34.437700   0.003233  -0.001391  22.938500  -0.000210  -0.002272  44.575300  -5.031750  -5.086740  67.201100  -0.003754   0.004332  44.755900  -0.007790  -0.006166   1.843270  12.297800   4.340770   0.893019   0.101272   3.772040  -0.211049  -3.280010   2.117650   0.000000   0.000000  -0.000000   3.194760  10.123000   0.397285  -0.365960   2.450100  -7.326970  -0.221036  -3.595280  -0.876013   0.000000   0.000000  -0.000000
  0.226700  89.558100  -0.660403  -2.586640  -9.743830  -0.753321   0.106627   5.991460   0.875166   0.121636  11.983900   1.753570   1.036690  -1.022430   0.025675   1.704600  -2.071090   2.206580  -4.418350  -1.347530   0.107931 -73.188600  16.324900  -1.622310  -1.431760  -3.716210 -17.527700  12.264600  -4.062500   2.237370  38.274000  29.889500 -56.735800 -31.592300   0.000000   0.000058 -10.800200   0.001557  -0.000000 -30.124600   4.605500  -7.878480 -24.907000   0.008210   0.001567 -17.434900   0.011866   0.000469 -28.293900  -2.314970   4.291020 -34.943500   0.000000   0.000000 -23.272300  -0.000413   0.000000 -28.488900  -2.329230   4.283310 -37.030800   0.001519  -0.000786 -24.662500  -0.004581  -0.000288 -29.794400  -2.426700   4.228920 -44.829000   0.000441  -0.001194 -29.856100   0.000725   0.000150  11.844600   0.721460   5.804900  69.333200   6.139040  -4.765250  -4.323390  -7.842690  18.142600 -12.356500  -2.695990   6.714110 -41.783100  39.342000  71.138200  33.194800  -0.003841   0.002626  11.590200   0.003080  -0.005205  33.977500   5.530780   8.138710  28.122000   0.003055   0.008339  19.685400   0.001021  -0.003080  28.483100  -3.410600  -6.257490  38.472000   0.003293  -0.005261  25.622400   0.000840  -0.000984  28.144700  -3.373310  -6.277610  34.447600   0.003207  -0.001395  22.942100  -0.000217  -0.002281  44.578700  -5.012880  -5.067410  67.201100  -0.003750   0.004305  44.755900  -0.007788  -0.006164   1.835330  12.313500   4.352960   0.877277   0.090380   3.790890  -0.192063  -3.286000   2.130370   0.000000   0.000000  -0.000000   3.210640  10.123100   0.420461  -0.398526   2.458570  -7.360940  -0.193094  -3.595590  -0.821381   0.000000   0.000000   0.000000
  0.245960  89.558000  -0.660253  -2.595840  -9.751540  -0.778592   0.110185   5.991180   0.876310   0.128697  11.983400   1.755450   1.040630  -1.001730   0.025576   1.711020  -2.029180   2.211300  -4.424400  -1.343440   0.107862 -73.205400  16.354600  -1.639840  -1.424810  -3.723330 -17.521200  12.273300  -4.077570   2.240330  38.264000  29.871100 -56.741600 -31.596500   0.000000   0.000077 -10.800300   0.001551   0.000000 -30.139000   4.609000  -7.880990 -24.918800   0.008215   0.001570 -17.443200   0.011863   0.000479 -28.293700  -2.316770   4.293970 -34.969700   0.000000   0.000000 -23.289800  -0.000414  -0.000000 -28.488600  -2.331000   4.286270 -37.051300   0.001522  -0.000787 -24.676200  -0.004580  -0.000287 -29.794200  -2.428680   4.231770 -44.834400   0.000441  -0.001196 -29.856100   0.000725   0.000150  11.846800   0.718350   5.804930  69.324300   6.172870  -4.759380  -4.313370  -7.842200  18.145000 -12.337000  -2.680240   6.713240 -41.794400  39.346600  71.133100  33.188400  -0.003861   0.002637  11.590300   0.003082  -0.005210  33.966600   5.529110   8.139560  28.112900   0.003055   0.008378  19.679000   0.001019  -0.003079  28.487000  -3.392420  -6.224260  38.462600   0.003242  -0.005259  25.616100   0.000804  -0.000955  28.148600  -3.355520  -6.244170  34.463800   0.003169  -0.001402  22.952300  -0.000228  -0.002295  44.596200  -4.987760  -5.038950  67.223000  -0.003742   0.004262  44.770500  -0.007787  -0.006163   1.823330  12.336600   4.355140   0.869504   0.067411   3.805990  -0.175308  -3.280050   2.139290   0.000000   0.000000  -0.000000   3.219600  10.130100   0.443210  -0.425780   2.456380  -7.397110  -0.165248  -3.590480  -0.779348   0.000000   0.000000   0.000000
  0.266136  89.558000  -0.660080  -2.604350  -9.762210  -0.799629   0.113355   5.990970   0.876759   0.135040  11.983000   1.756060   1.052810  -0.978010   0.025461   1.731040  -1.981190   2.213500  -4.426970  -1.342250   0.107841 -73.220400  16.389800  -1.655040  -1.417680  -3.732830 -17.516800  12.277100  -4.092650   2.241380  38.250700  29.857800 -56.739600 -31.600700   0.000000   0.000086 -10.800400   0.001541  -0.000000 -30.148300   4.616450  -7.889510 -24.927300   0.008221   0.001571 -17.449200   0.011861   0.000492 -28.293400  -2.318560   4.296920 -34.985200   0.000000   0.000000 -23.300200  -0.000416  -0.000000 -28.488600  -2.332770   4.289240 -37.074100   0.001525  -0.000789 -24.691400  -0.004579  -0.000287 -29.794000  -2.430660   4.234610 -44.839800   0.000441  -0.001197 -29.856200   0.000724   0.000150  11.851700   0.710460   5.804930  69.318400   6.208540  -4.752950  -4.307300  -7.839340  18.148100 -12.316200  -2.664520   6.707620 -41.805800  39.351100  71.128100  33.182100  -0.003882   0.002645  11.591000   0.003085  -0.005214  33.959400   5.528090   8.140410  28.107100   0.003055   0.008430  19.674900   0.001017  -0.003079  28.490300  -3.376950  -6.195600  38.453300   0.003179  -0.005257  25.609900   0.000760  -0.000921  28.151900  -3.340590  -6.215220  34.484400   0.003121  -0.001411  22.966600  -0.000241  -0.002312  44.613600  -4.966160  -5.014470  67.246800  -0.003730   0.004208  44.786300  -0.007785  -0.006162   1.810880  12.355100   4.355950   0.863920   0.051214   3.820290  -0.158588  -3.274100   2.147500  -0.000000   0.000000  -0.000000   3.224580  10.144700   0.465931  -0.449406   2.453370  -7.435860  -0.134944  -3.581070  -0.736578   0.000000   0.000000  -0.000000
  0.287220  89.557900  -0.659935  -2.614980  -9.776730  -0.818966   0.116092   5.991440   0.877277   0.140504  11.984000   1.756810   1.073740  -0.952817   0.025342   1.765450  -1.930160   2.200100  -4.426210  -1.345910   0.109176 -73.232800  16.431700  -1.669370  -1.410800  -3.751690 -17.520000  12.272200  -4.090260   2.233470  38.261900  29.869400 -56.730300 -31.590400   0.000000   0.000043 -10.795200   0.001530   0.000035 -30.144600   4.628690  -7.911030 -24.926300   0.008227   0.001570 -17.446300   0.011863   0.000510 -28.293800  -2.316690   4.293850 -34.963700   0.000000   0.000000 -23.285800  -0.000417   0.000000 -28.490700  -2.331120   4.286050 -37.089700   0.001528  -0.000790 -24.701700  -0.004579  -0.000287 -29.794300  -2.428820   4.231520 -44.838800   0.000440  -0.001199 -29.856200   0.000725   0.000151  11.858900   0.698687   5.804690  69.317200   6.250760  -4.743390  -4.311880  -7.825020  18.149100 -12.292800  -2.679480   6.686320 -41.788600  39.344600  71.135900  33.194700  -0.003898   0.002653  11.597700   0.003093  -0.005202  33.974200   5.524770   8.132110  28.118600   0.003056   0.008489  19.683000   0.001021  -0.003079  28.491400  -3.372440  -6.186730  38.468900   0.003108  -0.005254  25.620200   0.000713  -0.000886  28.154000  -3.336430  -6.206170  34.509400   0.003067  -0.001421  22.983300  -0.000254  -0.002332  44.615600  -4.959320  -5.007250  67.249000  -0.003717   0.004145  44.787800  -0.007782  -0.006159   1.801570  12.357500   4.356340   0.858974   0.083272   3.833020  -0.143964  -3.290100   2.154460   0.000000   0.000000   0.000000   3.224310  10.163000   0.486203  -0.464642   2.451960  -7.472940  -0.103142  -3.571300  -0.692357   0.000000   0.000000   0.000000
